<svg xmlns="http://www.w3.org/2000/svg" width="1200" height="630" viewBox="0 0 1200 630">
  <rect width="1200" height="630" fill="#FAFAF9"/>
  <rect x="0" y="0" width="1200" height="4" fill="#2563EB"/>
  <!-- Logo -->
  <rect x="510" y="160" width="80" height="80" rx="18" fill="#2563EB"/>
  <path d="M550 180L570 192V210L550 222L530 210V192L550 180Z" stroke="white" stroke-width="3" fill="none"/>
  <path d="M550 187L560 193V205L550 211L540 205V193L550 187Z" fill="white" fill-opacity="0.2"/>
  <text x="550" y="204" text-anchor="middle" font-family="Georgia, serif" font-size="22" font-weight="700" fill="white">K</text>
  <!-- App Name -->
  <text x="600" y="310" text-anchor="middle" font-family="Georgia, serif" font-size="56" font-weight="700" fill="#1C1917" letter-spacing="-1">KnoWault</text>
  <!-- Tagline -->
  <text x="600" y="360" text-anchor="middle" font-family="system-ui, sans-serif" font-size="24" fill="#78716C">Your Personal Knowledge Vault</text>
  <!-- Feature pills -->
  <rect x="310" y="410" width="140" height="40" rx="20" fill="#2563EB" fill-opacity="0.08"/>
  <text x="380" y="436" text-anchor="middle" font-family="system-ui, sans-serif" font-size="15" font-weight="600" fill="#2563EB">Offline Ready</text>
  <rect x="470" y="410" width="120" height="40" rx="20" fill="#16A34A" fill-opacity="0.08"/>
  <text x="530" y="436" text-anchor="middle" font-family="system-ui, sans-serif" font-size="15" font-weight="600" fill="#16A34A">Cross-Device</text>
  <rect x="610" y="410" width="140" height="40" rx="20" fill="#D97706" fill-opacity="0.08"/>
  <text x="680" y="436" text-anchor="middle" font-family="system-ui, sans-serif" font-size="15" font-weight="600" fill="#D97706">Organize Tags</text>
  <rect x="770" y="410" width="120" height="40" rx="20" fill="#8B5CF6" fill-opacity="0.08"/>
  <text x="830" y="436" text-anchor="middle" font-family="system-ui, sans-serif" font-size="15" font-weight="600" fill="#8B5CF6">Installable</text>
</svg>
